<?xml version="1.0" encoding="UTF-8" standalone="no"?>
<!DOCTYPE svg PUBLIC "-//W3C//DTD SVG 1.1//EN"
 "http://www.w3.org/Graphics/SVG/1.1/DTD/svg11.dtd">
<!-- Generated by graphviz version 2.38.0 (20140413.2041)
 -->
<!-- Title: G Pages: 1 -->
<svg width="288pt" height="203pt"
 viewBox="0.00 0.00 287.87 203.00" xmlns="http://www.w3.org/2000/svg" xmlns:xlink="http://www.w3.org/1999/xlink">
<g id="graph0" class="graph" transform="scale(1 1) rotate(0) translate(4 199)">
<title>G</title>
<polygon fill="white" stroke="none" points="-4,4 -4,-199 283.874,-199 283.874,4 -4,4"/>
<g id="clust1" class="cluster"><title>cluster_Global</title>
<path fill="none" stroke="gray" d="M192.464,-8C192.464,-8 259.874,-8 259.874,-8 265.874,-8 271.874,-14 271.874,-20 271.874,-20 271.874,-175 271.874,-175 271.874,-181 265.874,-187 259.874,-187 259.874,-187 192.464,-187 192.464,-187 186.464,-187 180.464,-181 180.464,-175 180.464,-175 180.464,-20 180.464,-20 180.464,-14 186.464,-8 192.464,-8"/>
<text text-anchor="middle" x="226.169" y="-174.2" font-family="Times,serif" font-size="11.00" fill="gray">Global</text>
</g>
<!-- \\ZObject -->
<g id="node1" class="node"><title>\\ZObject</title>
<polygon fill="none" stroke="black" points="257.377,-160 194.961,-160 194.961,-124 257.377,-124 257.377,-160"/>
<text text-anchor="middle" x="226.169" y="-138.7" font-family="Courier,monospace" font-size="11.00">ZObject</text>
</g>
<!-- \\ArrayAccess -->
<g id="node4" class="node"><title>\\ArrayAccess</title>
<ellipse fill="none" stroke="black" cx="58.232" cy="-142" rx="58.465" ry="18"/>
<text text-anchor="middle" x="58.232" y="-137.8" font-family="Times,serif" font-size="14.00" fill="gray">\ArrayAccess</text>
</g>
<!-- \\ZObject&#45;&gt;\\ArrayAccess -->
<g id="edge1" class="edge"><title>\\ZObject&#45;&gt;\\ArrayAccess</title>
<path fill="none" stroke="black" stroke-dasharray="1,5" d="M194.734,-142C175.743,-142 150.516,-142 126.98,-142"/>
<polygon fill="none" stroke="black" points="126.669,-138.5 116.669,-142 126.668,-145.5 126.669,-138.5"/>
</g>
<!-- \\ZAccounts -->
<g id="node2" class="node"><title>\\ZAccounts</title>
<polygon fill="none" stroke="black" points="264.08,-106 188.258,-106 188.258,-70 264.08,-70 264.08,-106"/>
<text text-anchor="middle" x="226.169" y="-84.7" font-family="Courier,monospace" font-size="11.00">ZAccounts</text>
</g>
<!-- \\ZClient -->
<g id="node3" class="node"><title>\\ZClient</title>
<polygon fill="none" stroke="black" points="257.377,-52 194.961,-52 194.961,-16 257.377,-16 257.377,-52"/>
<text text-anchor="middle" x="226.169" y="-30.7" font-family="Courier,monospace" font-size="11.00">ZClient</text>
</g>
</g>
</svg>
